<svg version="1.1" class="has-solid " viewBox="0 0 36 36" preserveAspectRatio="xMidYMid meet" xmlns="http://www.w3.org/2000/svg" xmlns:xlink="http://www.w3.org/1999/xlink" focusable="false" role="img" width="16" height="16" fill="black"><path class="clr-i-outline clr-i-outline-path-1" d="M33.71,17.29l-15-15a1,1,0,0,0-1.41,0l-15,15a1,1,0,0,0,1.41,1.41L18,4.41,32.29,18.71a1,1,0,0,0,1.41-1.41Z"/><path class="clr-i-outline clr-i-outline-path-2" d="M28,32h-5V22H13V32H8V18L6,20V32a2,2,0,0,0,2,2h7V24h6V34h7a2,2,0,0,0,2-2V19.76l-2-2Z"/><path class="clr-i-solid clr-i-solid-path-1" d="M33,19a1,1,0,0,1-.71-.29L18,4.41,3.71,18.71a1,1,0,0,1-1.41-1.41l15-15a1,1,0,0,1,1.41,0l15,15A1,1,0,0,1,33,19Z" style="display:none"/><path class="clr-i-solid clr-i-solid-path-2" d="M18,7.79,6,19.83V32a2,2,0,0,0,2,2h7V24h6V34h7a2,2,0,0,0,2-2V19.76Z" style="display:none"/></svg>